<svg width="30" height="31" viewBox="0 0 30 31" fill="none" xmlns="http://www.w3.org/2000/svg">
<path d="M26.7188 15.5C26.7188 15.873 26.5706 16.2306 26.3069 16.4944C26.0431 16.7581 25.6855 16.9062 25.3125 16.9062H4.6875C4.31454 16.9062 3.95685 16.7581 3.69313 16.4944C3.42941 16.2306 3.28125 15.873 3.28125 15.5C3.28125 15.127 3.42941 14.7694 3.69313 14.5056C3.95685 14.2419 4.31454 14.0938 4.6875 14.0938H25.3125C25.6855 14.0938 26.0431 14.2419 26.3069 14.5056C26.5706 14.7694 26.7188 15.127 26.7188 15.5ZM4.6875 9.40625H25.3125C25.6855 9.40625 26.0431 9.25809 26.3069 8.99437C26.5706 8.73065 26.7188 8.37296 26.7188 8C26.7188 7.62704 26.5706 7.26935 26.3069 7.00563C26.0431 6.74191 25.6855 6.59375 25.3125 6.59375H4.6875C4.31454 6.59375 3.95685 6.74191 3.69313 7.00563C3.42941 7.26935 3.28125 7.62704 3.28125 8C3.28125 8.37296 3.42941 8.73065 3.69313 8.99437C3.95685 9.25809 4.31454 9.40625 4.6875 9.40625ZM25.3125 21.5938H4.6875C4.31454 21.5938 3.95685 21.7419 3.69313 22.0056C3.42941 22.2694 3.28125 22.627 3.28125 23C3.28125 23.373 3.42941 23.7306 3.69313 23.9944C3.95685 24.2581 4.31454 24.4062 4.6875 24.4062H25.3125C25.6855 24.4062 26.0431 24.2581 26.3069 23.9944C26.5706 23.7306 26.7188 23.373 26.7188 23C26.7188 22.627 26.5706 22.2694 26.3069 22.0056C26.0431 21.7419 25.6855 21.5938 25.3125 21.5938Z" fill="#7B6FBD"/>
</svg>
